<svg width="46" height="53" viewBox="0 0 46 53" fill="none" xmlns="http://www.w3.org/2000/svg">
<path d="M12.1365 33.7198C11.6889 37.7419 7.1575 42.1915 4.97869 45.4547C1.64276 50.4509 5.50832 48.9335 8.15994 46.4253C8.76591 45.8521 13.5228 41.1068 14.3457 41.8372C14.9202 42.3471 16.2992 44.8539 16.7316 45.6312C18.5635 48.9234 27.0988 53.4097 29.8101 48.8075C30.4683 47.6904 31.9436 46.122 32.0193 44.8371C32.098 43.5006 29.8306 39.355 31.224 39.8961C35.1023 41.402 40.963 39.7215 42.9769 36.1021C44.5645 33.2488 44.3548 28.0503 40.591 26.7494C39.7794 26.4689 33.9345 26.6246 35.2005 25.9554C37.1148 24.9435 40.9807 22.947 41.5189 20.5291C42.9308 14.1852 41.9244 8.23957 35.554 5.9266C33.8641 5.31303 31.7412 4.58091 30.031 5.52955C28.3271 6.47475 27.5974 8.19741 26.0103 9.10297C24.0792 10.2047 25.0881 7.54039 24.8173 6.32365C24.4298 4.58252 21.3474 2.25456 19.692 2.00026C13.8729 1.1064 11.2929 2.87286 7.85065 7.07362C5.947 9.39673 5.8494 15.2307 7.01115 17.8821C9.61459 23.8237 3.81853 18.9145 2.63694 23.0437C1.45938 27.1588 1.72139 29.5785 3.38807 33.3228C4.56366 35.9638 10.2947 35.8095 11.3412 33.7198" stroke="#D5DCE1" stroke-width="3" stroke-linecap="round"/>
</svg>
