<svg width="69" height="67" viewBox="0 0 69 67" fill="none" xmlns="http://www.w3.org/2000/svg">
<path fill-rule="evenodd" clip-rule="evenodd" d="M55.0162 47.4762C62.6847 46.3632 68.522 40.684 68.522 33.8453C68.522 27.3186 63.2052 21.848 56.054 20.3949C57.4018 18.4389 58.1744 16.1616 58.1744 13.7308C58.1744 6.4406 51.2251 0.530761 42.6527 0.530761C35.8073 0.53076 29.997 4.29919 27.9336 9.52968C25.9309 8.99223 23.7989 8.70239 21.5873 8.70239C9.95327 8.70239 0.522048 16.7229 0.522048 26.6167C0.522047 35.2406 7.68771 42.4413 17.2319 44.1476C16.4632 45.9332 16.0438 47.8619 16.0438 49.8739C16.0438 59.0734 24.8131 66.5311 35.6307 66.5311C46.4483 66.5311 55.2177 59.0734 55.2177 49.8739C55.2177 49.0597 55.149 48.2591 55.0162 47.4762Z" fill="#D5DCE1"/>
</svg>
