<svg width="105" height="92" viewBox="0 0 105 92" fill="none" xmlns="http://www.w3.org/2000/svg">
<path fill-rule="evenodd" clip-rule="evenodd" d="M74.6855 18.2725C72.9149 7.8975 63.8797 0 53 0C42.6166 0 33.9133 7.19338 31.6016 16.8686C28.49 15.0452 24.867 14 21 14C9.40202 14 0 23.402 0 35C0 44.2612 5.99505 52.1222 14.3161 54.9139C13.4611 57.6235 13 60.5079 13 63.5C13 79.2401 25.7599 92 41.5 92C55.2199 92 66.6755 82.3053 69.3901 69.3926C72.2308 70.4325 75.2991 71 78.5 71C93.1355 71 105 59.1355 105 44.5C105 29.8645 93.1355 18 78.5 18C77.2047 18 75.9311 18.0929 74.6855 18.2725Z" fill="#D5DCE1"/>
</svg>
