<svg width="56" height="51" viewBox="0 0 56 51" fill="none" xmlns="http://www.w3.org/2000/svg">
<path fill-rule="evenodd" clip-rule="evenodd" d="M44.0951 36.463C50.2974 35.6198 55.0186 31.3174 55.0186 26.1366C55.0186 21.1921 50.7181 17.0477 44.934 15.9469C46.024 14.4652 46.6488 12.7401 46.6488 10.8987C46.6488 5.37583 41.0281 0.898681 34.0945 0.898681C28.558 0.89868 23.8586 3.75333 22.1895 7.71557C20.5697 7.30843 18.8453 7.08887 17.0566 7.08887C7.64674 7.08887 0.0185465 13.165 0.0185462 20.6603C0.0185459 27.1937 5.81446 32.6488 13.5342 33.9414C12.9125 35.2941 12.5732 36.7552 12.5732 38.2794C12.5732 45.2488 19.6661 50.8985 28.4156 50.8985C37.1651 50.8985 44.258 45.2488 44.258 38.2794C44.258 37.6626 44.2024 37.0562 44.0951 36.463Z" fill="#D5DCE1"/>
</svg>
