<?xml version="1.0" encoding="UTF-8"?>
<svg version="1.1" xmlns="http://www.w3.org/2000/svg" width="192" height="183">
<path d="M0 0 C7.19167905 6.3833581 7.19167905 6.3833581 9 10 C12.29799969 8.44754581 15.26907474 6.56418705 18.3125 4.5625 C27.94460307 -1.5416391 37.2385046 -4.41666938 48.75 -2.4375 C58.22768206 0.1836172 65.36381853 7.20332875 70.47265625 15.34765625 C73.74157965 21.36133166 75.1388631 27.23943269 76 34 C77.093125 33.9175 78.18625 33.835 79.3125 33.75 C87.85736762 33.79529082 95.51670029 37.55286548 101.9921875 42.9375 C109.26645291 50.40989715 112.91868399 60.00788636 113.1875 70.3125 C113.02501155 81.072846 109.41241258 90.19481751 102.10546875 98.109375 C95.1147355 104.38676813 87.19463106 106.968494 78 108 C78.32613281 108.4846875 78.65226563 108.969375 78.98828125 109.46875 C79.42527344 110.1390625 79.86226562 110.809375 80.3125 111.5 C80.95638672 112.47453125 80.95638672 112.47453125 81.61328125 113.46875 C87.09089175 123.4673179 87.75744058 134.42687441 85.19140625 145.484375 C80.95475383 156.80166106 72.73332671 164.76338503 62 170 C49.87908629 175.46840512 37.4989149 175.14662938 25 171 C12.64065968 165.45857038 5.33671674 157.28984289 0 145 C-0.54527344 145.39832031 -1.09054688 145.79664063 -1.65234375 146.20703125 C-13.20064621 154.320454 -26.00007566 156.81427324 -40.0078125 154.50390625 C-53.72053723 151.04642437 -65.23505609 143.57414424 -72.75390625 131.390625 C-79.49544054 118.45702316 -80.57229902 105.27607087 -77.0390625 91.2421875 C-73.58872486 80.47609635 -66.8648863 72.81336958 -59 65 C-59.45890625 64.47792969 -59.9178125 63.95585938 -60.390625 63.41796875 C-68.42230466 53.78332781 -72.05437586 42.53748745 -71 30 C-68.94294502 17.85203749 -63.82740479 6.65312568 -53.609375 -0.7265625 C-36.54710443 -11.35122792 -16.55918967 -12.45406392 0 0 Z " fill="#231815" transform="translate(79,9)"/>
</svg>
