<svg width="511" height="231" viewBox="0 0 511 231" fill="none" xmlns="http://www.w3.org/2000/svg">
<path fill-rule="evenodd" clip-rule="evenodd" d="M80.6287 25.4757C56.4815 24.4908 34.3945 30.8253 22.2272 44.3178C17.6225 49.424 9.74209 49.838 4.62578 45.2424C-0.490533 40.6468 -0.905292 32.7819 3.69939 27.6757C22.9397 6.33978 53.9463 -0.510786 81.6465 0.618959C109.268 1.74549 138.124 10.9717 154.386 27.2012C164.618 37.4133 180.085 42.6374 197.401 42.3484C214.685 42.06 232.561 36.2493 246.306 26.0239C294.715 -9.99089 353.882 -5.55059 384.978 27.4793C397.705 40.9983 417.419 45.0529 438.945 42.8797C460.394 40.7142 480.701 32.5787 491.123 25.6461C496.851 21.8363 504.589 23.382 508.406 29.0984C512.224 34.8149 510.675 42.5375 504.947 46.3474C490.942 55.6631 466.704 65.0815 441.453 67.6308C416.279 70.1724 387.137 66.1029 366.812 44.5142C346.06 22.4722 301.532 15.9664 261.203 45.9696C243.047 59.4773 220.043 66.8516 197.817 67.2224C175.623 67.5927 152.95 60.9503 136.76 44.7923C126.599 34.6517 104.855 26.4637 80.6287 25.4757Z" fill="white"/>
<path fill-rule="evenodd" clip-rule="evenodd" d="M80.6287 107.074C56.4815 106.089 34.3945 112.423 22.2272 125.916C17.6225 131.022 9.74209 131.436 4.62578 126.84C-0.490533 122.245 -0.905292 114.38 3.69939 109.274C22.9397 87.9378 53.9463 81.0872 81.6465 82.217C109.268 83.3435 138.124 92.5698 154.386 108.799C164.618 119.011 180.085 124.235 197.401 123.946C214.685 123.658 232.561 117.847 246.306 107.622C294.715 71.6071 353.882 76.0474 384.978 109.077C397.705 122.596 417.419 126.651 438.945 124.478C460.394 122.312 480.701 114.177 491.123 107.244C496.851 103.434 504.589 104.98 508.406 110.696C512.224 116.413 510.675 124.136 504.947 127.945C490.942 137.261 466.704 146.68 441.453 149.229C416.279 151.77 387.137 147.701 366.812 126.112C346.06 104.07 301.532 97.5644 261.203 127.568C243.047 141.075 220.043 148.45 197.817 148.82C175.623 149.191 152.95 142.548 136.76 126.39C126.599 116.25 104.855 108.062 80.6287 107.074Z" fill="white"/>
<path fill-rule="evenodd" clip-rule="evenodd" d="M80.6287 187.677C56.4815 186.692 34.3945 193.026 22.2272 206.519C17.6225 211.625 9.74209 212.039 4.62578 207.443C-0.490533 202.848 -0.905292 194.983 3.69939 189.877C22.9397 168.541 53.9463 161.69 81.6465 162.82C109.268 163.946 138.124 173.173 154.386 189.402C164.618 199.614 180.085 204.838 197.401 204.549C214.685 204.261 232.561 198.45 246.306 188.225C294.715 152.21 353.882 156.65 384.978 189.68C397.705 203.199 417.419 207.254 438.945 205.081C460.394 202.915 480.701 194.78 491.123 187.847C496.851 184.037 504.589 185.583 508.406 191.299C512.224 197.016 510.675 204.738 504.947 208.548C490.942 217.864 466.704 227.282 441.453 229.832C416.279 232.373 387.137 228.304 366.812 206.715C346.06 184.673 301.532 178.167 261.203 208.171C243.047 221.678 220.043 229.053 197.817 229.423C175.623 229.794 152.95 223.151 136.76 206.993C126.599 196.853 104.855 188.665 80.6287 187.677Z" fill="white"/>
</svg>
