<?xml version="1.0" encoding="UTF-8"?>
<svg id="_レイヤー_1" data-name="レイヤー 1" xmlns="http://www.w3.org/2000/svg" viewBox="0 0 770 270">
  <defs>
    <style>
      .cls-1 {
        fill: #f0fafa;
        fill-rule: evenodd;
      }
    </style>
  </defs>
  <path class="cls-1" d="M98.51,61.95c-39.2,2.45-74.35,12.42-92.76,28.62-1.74,1.53-3.26,2.78-5.57,3.73l-.18-35.55c28.32-14.26,64.04-21.44,97.76-23.54,44.84-2.8,92.45,2.89,120.34,17.9,17.55,9.44,43.1,12.79,71.11,9.97,27.96-2.81,56.35-11.62,77.62-24.55,74.92-45.55,171.16-49.37,224.69-18.54,21.91,12.62,54.22,14.1,88.87,8.66,34.52-5.43,66.62-17.07,82.83-26,1.97-1.09,4.54-1.94,6.77-2.5v31.37c-21.99,9.34-52.2,18.38-83.16,23.25-40.52,6.37-88.1,6.24-123.09-13.92-35.72-20.58-108.45-21.09-170.87,16.86-28.1,17.08-64.64,28.31-100.59,31.93-35.9,3.61-73.26-.21-101.03-15.15-17.43-9.38-53.43-14.99-92.75-12.54Z"/>
  <path class="cls-1" d="M106.36,149.26c-39.2,2.45-74.35,12.42-92.75,28.62-3.48,3.07-8.4,4.99-13.55,5.63l.42-33.14c29.26-17.16,68.16-25.56,105.13-27.87,44.84-2.8,92.45,2.89,120.34,17.9,17.55,9.44,43.1,12.79,71.11,9.97,27.96-2.81,56.35-11.62,77.62-24.55,74.92-45.55,171.16-49.37,224.69-18.54,21.91,12.62,54.22,14.1,88.87,8.66,34.52-5.43,65.46-17.07,81.67-26l.03,32.09c-20.94,8.15-47.86,15.73-75.25,20.03-40.52,6.37-88.1,6.24-123.09-13.92-35.72-20.58-108.45-21.09-170.87,16.86-28.1,17.08-64.64,28.31-100.59,31.93-35.91,3.61-73.26-.21-101.03-15.15-17.43-9.38-53.43-14.99-92.75-12.54Z"/>
  <path class="cls-1" d="M114.12,235.5c-39.2,2.45-74.35,12.42-92.75,28.62-5.22,4.6-13.68,6.64-21.27,5.61l.39-28.18c29.65-20.5,72.53-30.28,112.89-32.8,44.84-2.8,92.45,2.89,120.34,17.9,17.55,9.44,43.1,12.79,71.11,9.98,27.96-2.81,56.35-11.62,77.62-24.55,74.92-45.55,171.16-49.37,224.69-18.54,21.91,12.62,54.22,14.1,88.87,8.66,28.88-4.54,56.07-13.43,73.68-21.45l.15,30.27c-19.61,7.09-43.08,13.48-67.39,17.3-40.52,6.37-88.1,6.23-123.09-13.92-35.72-20.58-108.45-21.09-170.87,16.86-28.1,17.08-64.64,28.31-100.59,31.92-35.91,3.61-73.26-.21-101.03-15.15-17.43-9.38-53.43-14.99-92.75-12.54Z"/>
</svg>